<mxfile host="app.diagrams.net" modified="2023-05-24T09:02:53.047Z" agent="Mozilla/5.0 (Macintosh; Intel Mac OS X 10_15_7) AppleWebKit/537.36 (KHTML, like Gecko) Chrome/109.0.0.0 Safari/537.36" etag="McoWvwzUm-Llvpfs7w-z" version="21.3.3" type="device">
  <diagram name="Page-1" id="e2OG8YVAVIMXFCKYnt1o">
    <mxGraphModel dx="668" dy="1005" grid="1" gridSize="10" guides="1" tooltips="1" connect="1" arrows="1" fold="1" page="1" pageScale="1" pageWidth="850" pageHeight="1100" math="0" shadow="0">
      <root>
        <mxCell id="0" />
        <mxCell id="1" parent="0" />
        <mxCell id="ifZcxbc6ViH0zZD_RYen-2" value="" style="rounded=0;whiteSpace=wrap;html=1;strokeWidth=2;" parent="1" vertex="1">
          <mxGeometry x="80" y="120" width="600" height="840" as="geometry" />
        </mxCell>
        <mxCell id="ifZcxbc6ViH0zZD_RYen-3" value="&lt;font face=&quot;Verdana&quot; color=&quot;#000000&quot;&gt;&lt;span style=&quot;font-size: 41px;&quot;&gt;&lt;b&gt;Wrench attact&lt;/b&gt;&lt;/span&gt;&lt;/font&gt;" style="rounded=0;whiteSpace=wrap;html=1;fillColor=#00ff00;" parent="1" vertex="1">
          <mxGeometry x="90" y="130" width="580" height="150" as="geometry" />
        </mxCell>
        <mxCell id="ifZcxbc6ViH0zZD_RYen-4" value="&lt;font style=&quot;font-size: 37px;&quot;&gt;Pay damage&lt;/font&gt;" style="text;html=1;strokeColor=none;fillColor=none;align=center;verticalAlign=middle;whiteSpace=wrap;rounded=0;" parent="1" vertex="1">
          <mxGeometry x="150" y="290" width="445" height="50" as="geometry" />
        </mxCell>
        <mxCell id="ifZcxbc6ViH0zZD_RYen-13" value="&lt;font style=&quot;font-size: 24px;&quot;&gt;&quot;How does everyone feel about the B symbol with the two lines through the outside? Can we live with that as our logo?&quot;&lt;/font&gt;" style="text;html=1;strokeColor=none;fillColor=none;align=center;verticalAlign=middle;whiteSpace=wrap;rounded=0;" parent="1" vertex="1">
          <mxGeometry x="115" y="830" width="530" height="118" as="geometry" />
        </mxCell>
        <mxCell id="AQVznC5wjigk1xOmniH--4" value="&lt;div style=&quot;&quot;&gt;&lt;/div&gt;&lt;font style=&quot;font-size: 32px;&quot;&gt;10 % of balance or 200 sats&lt;br&gt;Whatever is higher&lt;br&gt;&lt;br&gt;&lt;br&gt;&lt;br&gt;&lt;br&gt;&lt;br&gt;Liquidation price:&lt;br&gt;&lt;br&gt;&lt;br&gt;&lt;br&gt;&lt;br&gt;&lt;/font&gt;" style="text;html=1;strokeColor=none;fillColor=none;align=left;verticalAlign=middle;whiteSpace=wrap;rounded=0;" parent="1" vertex="1">
          <mxGeometry x="126" y="330" width="414" height="500" as="geometry" />
        </mxCell>
        <mxCell id="AQVznC5wjigk1xOmniH--5" value="&lt;div style=&quot;font-size: 32px;&quot;&gt;&lt;br&gt;&lt;br&gt;&lt;br&gt;&lt;br&gt;&lt;br&gt;&lt;br&gt;&lt;br&gt;75 sats&lt;br&gt;&lt;br&gt;&lt;br&gt;&lt;br&gt;&lt;br&gt;&lt;/div&gt;&lt;div style=&quot;font-size: 32px;&quot;&gt;&lt;br&gt;&lt;/div&gt;" style="text;html=1;strokeColor=none;fillColor=none;align=right;verticalAlign=middle;whiteSpace=wrap;rounded=0;" parent="1" vertex="1">
          <mxGeometry x="390" y="288" width="244" height="620" as="geometry" />
        </mxCell>
      </root>
    </mxGraphModel>
  </diagram>
</mxfile>
